<?xml version="1.0" encoding="UTF-8" standalone="no"?>
<!-- Created with Inkscape (http://www.inkscape.org/) -->

<svg
   xmlns:dc="http://purl.org/dc/elements/1.1/"
   xmlns:cc="http://creativecommons.org/ns#"
   xmlns:rdf="http://www.w3.org/1999/02/22-rdf-syntax-ns#"
   xmlns:svg="http://www.w3.org/2000/svg"
   xmlns="http://www.w3.org/2000/svg"
   xmlns:sodipodi="http://sodipodi.sourceforge.net/DTD/sodipodi-0.dtd"
   xmlns:inkscape="http://www.inkscape.org/namespaces/inkscape"
   width="210mm"
   height="297mm"
   viewBox="0 0 210 297"
   version="1.1"
   id="svg8"
   inkscape:version="0.92.2 (5c3e80d, 2017-08-06)"
   sodipodi:docname="ac_load_save.svg">
  <defs
     id="defs2" />
  <sodipodi:namedview
     id="base"
     pagecolor="#ffffff"
     bordercolor="#666666"
     borderopacity="1.0"
     inkscape:pageopacity="0.0"
     inkscape:pageshadow="2"
     inkscape:zoom="0.70710678"
     inkscape:cx="574.87586"
     inkscape:cy="733.88578"
     inkscape:document-units="mm"
     inkscape:current-layer="layer1"
     showgrid="false"
     inkscape:snap-global="false"
     inkscape:window-width="1920"
     inkscape:window-height="1029"
     inkscape:window-x="1272"
     inkscape:window-y="-8"
     inkscape:window-maximized="1" />
  <metadata
     id="metadata5">
    <rdf:RDF>
      <cc:Work
         rdf:about="">
        <dc:format>image/svg+xml</dc:format>
        <dc:type
           rdf:resource="http://purl.org/dc/dcmitype/StillImage" />
        <dc:title></dc:title>
      </cc:Work>
    </rdf:RDF>
  </metadata>
  <g
     inkscape:label="レイヤー 1"
     inkscape:groupmode="layer"
     id="layer1">
    <g
       id="g888"
       transform="matrix(0.05665416,0,0,0.05665416,112.47682,92.470852)"
       style="stroke-width:4.67014837">
      <g
         id="g827"
         style="stroke-width:4.67014837">
        <g
           id="g825"
           style="stroke-width:4.67014837">
          <g
             id="g823"
             style="stroke-width:4.67014837">
            <path
               id="path815"
               d="M 236.936,0 H 91.465 C 87.459,0 83.693,1.56 80.86,4.392 80.859,4.393 80.859,4.393 80.859,4.393 L 33.647,51.604 c -2.833,2.833 -4.393,6.6 -4.393,10.606 v 203.98 c 0,8.271 6.728,15 15,15 7.091,0 185.609,0 192.682,0 8.271,0 15,-6.729 15,-15 V 15 c 0,-8.271 -6.729,-15 -15,-15 z m -25,271.19 H 69.254 v -82.595 c 0,-2.757 2.243,-5 5,-5 h 132.682 c 2.757,0 5,2.243 5,5 z m 25,0 h -15 v -82.595 c 0,-8.271 -6.729,-15 -15,-15 H 74.254 c -8.271,0 -15,6.729 -15,15 v 82.595 h -15 c -2.757,0 -5,-2.243 -5,-5 V 62.211 c 0,-1.335 0.52,-2.591 1.464,-3.536 l 47.21,-47.21 C 88.873,10.521 90.13,10 91.465,10 h 145.471 c 2.757,0 5,2.243 5,5 v 251.19 0 c 0,2.757 -2.243,5 -5,5 z"
               inkscape:connector-curvature="0"
               style="stroke-width:4.67014837" />
            <path
               id="path817"
               d="m 129.96,29.929 h -25.524 c -2.762,0 -5,2.239 -5,5 v 49.333 c 0,2.761 2.238,5 5,5 h 25.524 c 2.762,0 5,-2.239 5,-5 V 34.929 c 0,-2.762 -2.238,-5 -5,-5 z m -5,49.333 H 109.436 V 39.929 h 15.524 z"
               inkscape:connector-curvature="0"
               style="stroke-width:4.67014837" />
            <path
               id="path819"
               d="m 173.448,29.929 h -25.524 c -2.762,0 -5,2.239 -5,5 v 49.333 c 0,2.761 2.238,5 5,5 h 25.524 c 2.762,0 5,-2.239 5,-5 V 34.929 c 0,-2.762 -2.238,-5 -5,-5 z m -5,49.333 H 152.924 V 39.929 h 15.524 z"
               inkscape:connector-curvature="0"
               style="stroke-width:4.67014837" />
            <path
               id="path821"
               d="m 216.936,29.929 h -25.525 c -2.762,0 -5,2.239 -5,5 v 49.333 c 0,2.761 2.238,5 5,5 h 25.525 c 2.762,0 5,-2.239 5,-5 V 34.929 c 0,-2.762 -2.238,-5 -5,-5 z m -5,49.333 H 196.411 V 39.929 h 15.525 z"
               inkscape:connector-curvature="0"
               style="stroke-width:4.67014837" />
          </g>
        </g>
      </g>
      <g
         id="g829"
         style="stroke-width:4.67014837" />
      <g
         id="g831"
         style="stroke-width:4.67014837" />
      <g
         id="g833"
         style="stroke-width:4.67014837" />
      <g
         id="g835"
         style="stroke-width:4.67014837" />
      <g
         id="g837"
         style="stroke-width:4.67014837" />
      <g
         id="g839"
         style="stroke-width:4.67014837" />
      <g
         id="g841"
         style="stroke-width:4.67014837" />
      <g
         id="g843"
         style="stroke-width:4.67014837" />
      <g
         id="g845"
         style="stroke-width:4.67014837" />
      <g
         id="g847"
         style="stroke-width:4.67014837" />
      <g
         id="g849"
         style="stroke-width:4.67014837" />
      <g
         id="g851"
         style="stroke-width:4.67014837" />
      <g
         id="g853"
         style="stroke-width:4.67014837" />
      <g
         id="g855"
         style="stroke-width:4.67014837" />
      <g
         id="g857"
         style="stroke-width:4.67014837" />
    </g>
    <g
       id="g898"
       transform="matrix(0.26458333,0,0,0.26458333,31.601706,133.56614)" />
    <g
       id="g900"
       transform="matrix(0.26458333,0,0,0.26458333,31.601706,133.56614)" />
    <g
       id="g902"
       transform="matrix(0.26458333,0,0,0.26458333,31.601706,133.56614)" />
    <g
       id="g904"
       transform="matrix(0.26458333,0,0,0.26458333,31.601706,133.56614)" />
    <g
       id="g906"
       transform="matrix(0.26458333,0,0,0.26458333,31.601706,133.56614)" />
    <g
       id="g908"
       transform="matrix(0.26458333,0,0,0.26458333,31.601706,133.56614)" />
    <g
       id="g910"
       transform="matrix(0.26458333,0,0,0.26458333,31.601706,133.56614)" />
    <g
       id="g912"
       transform="matrix(0.26458333,0,0,0.26458333,31.601706,133.56614)" />
    <g
       id="g914"
       transform="matrix(0.26458333,0,0,0.26458333,31.601706,133.56614)" />
    <g
       id="g916"
       transform="matrix(0.26458333,0,0,0.26458333,31.601706,133.56614)" />
    <g
       id="g918"
       transform="matrix(0.26458333,0,0,0.26458333,31.601706,133.56614)" />
    <g
       id="g920"
       transform="matrix(0.26458333,0,0,0.26458333,31.601706,133.56614)" />
    <g
       id="g922"
       transform="matrix(0.26458333,0,0,0.26458333,31.601706,133.56614)" />
    <g
       id="g924"
       transform="matrix(0.26458333,0,0,0.26458333,31.601706,133.56614)" />
    <g
       id="g926"
       transform="matrix(0.26458333,0,0,0.26458333,31.601706,133.56614)" />
    <rect
       style="opacity:1;vector-effect:none;fill:#ffffff;fill-opacity:1;stroke:#ffffff;stroke-width:1.32291663;stroke-linecap:butt;stroke-linejoin:round;stroke-miterlimit:4;stroke-dasharray:none;stroke-dashoffset:0;stroke-opacity:1;paint-order:stroke markers fill"
       id="rect1093"
       width="3.2576823"
       height="3.819922"
       x="119.87278"
       y="91.666794"
       rx="0.10748195"
       ry="1.069078" />
    <g
       id="g1081"
       transform="translate(0.61184896,-1.0914063)">
      <rect
         ry="1.069078"
         rx="0.10748189"
         y="85.564842"
         x="120.68306"
         height="10.434501"
         width="0.57877195"
         id="rect1046"
         style="opacity:1;vector-effect:none;fill:#800000;fill-opacity:1;stroke:#800000;stroke-width:1.32291663;stroke-linecap:butt;stroke-linejoin:round;stroke-miterlimit:4;stroke-dasharray:none;stroke-dashoffset:0;stroke-opacity:1;paint-order:stroke markers fill" />
      <rect
         transform="rotate(-45)"
         ry="1.069078"
         rx="0.1074819"
         y="146.07161"
         x="24.965601"
         height="4.5920415"
         width="0.25470743"
         id="rect1046-3"
         style="opacity:1;vector-effect:none;fill:#800000;fill-opacity:1;stroke:#800000;stroke-width:1.32291663;stroke-linecap:butt;stroke-linejoin:round;stroke-miterlimit:4;stroke-dasharray:none;stroke-dashoffset:0;stroke-opacity:1;paint-order:stroke markers fill" />
      <rect
         transform="rotate(45)"
         ry="1.069078"
         rx="0.1074819"
         y="-25.035959"
         x="145.87074"
         height="4.5920415"
         width="0.25470743"
         id="rect1046-3-6"
         style="opacity:1;vector-effect:none;fill:#800000;fill-opacity:1;stroke:#800000;stroke-width:1.32291663;stroke-linecap:butt;stroke-linejoin:round;stroke-miterlimit:4;stroke-dasharray:none;stroke-dashoffset:0;stroke-opacity:1;paint-order:stroke markers fill" />
    </g>
    <g
       id="g1153"
       transform="matrix(0.04496654,0,0,0.04496654,107.75838,57.129942)">
      <g
         id="g1097">
        <path
           id="path1095"
           d="M 578.766,51.487 V 50.592 H 575.77 35.93 32.934 v 0.895 C 15.272,52.701 2.095,66.753 0,83.808 v 3.002 355.724 c 0,6.898 1.795,12.712 4.791,17.949 6.893,12.137 17.068,18.269 31.14,18.269 h 197.012 v 49.695 h -37.425 c -9.281,0 -16.467,7.218 -16.467,16.48 0,9.262 7.186,16.479 16.467,16.479 h 220.666 c 9.281,0 16.768,-7.218 16.768,-16.479 0,-9.263 -7.486,-16.48 -16.768,-16.48 H 378.759 V 478.752 H 575.77 c 14.078,0 24.343,-6.132 31.14,-18.269 3.085,-5.493 5.091,-11.37 5.091,-17.949 V 86.811 83.809 C 609.905,66.753 595.833,52.701 578.766,51.487 Z m 0,35.324 v 355.724 c 0,2.108 -0.895,3.002 -2.996,3.002 H 35.93 c -2.095,0 -2.996,-0.894 -2.996,-3.002 V 86.811 83.809 h 545.831 v 3.002 z"
           inkscape:connector-curvature="0" />
      </g>
      <g
         id="g1099" />
      <g
         id="g1101" />
      <g
         id="g1103" />
      <g
         id="g1105" />
      <g
         id="g1107" />
      <g
         id="g1109" />
      <g
         id="g1111" />
      <g
         id="g1113" />
      <g
         id="g1115" />
      <g
         id="g1117" />
      <g
         id="g1119" />
      <g
         id="g1121" />
      <g
         id="g1123" />
      <g
         id="g1125" />
      <g
         id="g1127" />
    </g>
  </g>
</svg>
