<?xml version="1.0" encoding="UTF-8" standalone="no"?>
<!-- Created with Inkscape (http://www.inkscape.org/) -->

<svg
   xmlns:dc="http://purl.org/dc/elements/1.1/"
   xmlns:cc="http://creativecommons.org/ns#"
   xmlns:rdf="http://www.w3.org/1999/02/22-rdf-syntax-ns#"
   xmlns:svg="http://www.w3.org/2000/svg"
   xmlns="http://www.w3.org/2000/svg"
   xmlns:sodipodi="http://sodipodi.sourceforge.net/DTD/sodipodi-0.dtd"
   xmlns:inkscape="http://www.inkscape.org/namespaces/inkscape"
   width="162.49986mm"
   height="50.781212mm"
   viewBox="0 0 162.49986 50.781212"
   version="1.1"
   id="svg6816"
   inkscape:version="0.92.1 r15371"
   sodipodi:docname="ac_auxjoin_multi.svg">
  <defs
     id="defs6810" />
  <sodipodi:namedview
     id="base"
     pagecolor="#ffffff"
     bordercolor="#666666"
     borderopacity="1.0"
     inkscape:pageopacity="0.0"
     inkscape:pageshadow="2"
     inkscape:zoom="1.4"
     inkscape:cx="292.19207"
     inkscape:cy="131.80979"
     inkscape:document-units="mm"
     inkscape:current-layer="layer5"
     showgrid="false"
     fit-margin-top="0"
     fit-margin-left="0"
     fit-margin-right="0"
     fit-margin-bottom="0"
     inkscape:window-width="1495"
     inkscape:window-height="756"
     inkscape:window-x="2593"
     inkscape:window-y="280"
     inkscape:window-maximized="0" />
  <metadata
     id="metadata6813">
    <rdf:RDF>
      <cc:Work
         rdf:about="">
        <dc:format>image/svg+xml</dc:format>
        <dc:type
           rdf:resource="http://purl.org/dc/dcmitype/StillImage" />
        <dc:title></dc:title>
      </cc:Work>
    </rdf:RDF>
  </metadata>
  <g
     inkscape:label="grid"
     inkscape:groupmode="layer"
     id="layer1"
     transform="translate(-11.759858,-8.8834486)"
     sodipodi:insensitive="true">
    <path
       d="M 11.75987,8.8834486 V 59.664658 M 14.405703,8.8834486 V 59.664658 M 17.051536,8.8834486 V 59.664658 M 19.697369,8.8834486 V 59.664658 M 22.343203,8.8834486 V 59.664658 M 24.989036,8.8834486 V 59.664658 M 27.634869,8.8834486 V 59.664658 M 30.280702,8.8834486 V 59.664658 M 32.926536,8.8834486 V 59.664658 M 35.572369,8.8834486 V 59.664658 M 38.218202,8.8834486 V 59.664658 M 40.864035,8.8834486 V 59.664658 M 43.509868,8.8834486 V 59.664658 M 46.155702,8.8834486 V 59.664658 M 48.801535,8.8834486 V 59.664658 M 51.447368,8.8834486 V 59.664658 M 54.093201,8.8834486 V 59.664658 M 56.739034,8.8834486 V 59.664658 M 59.384868,8.8834486 V 59.664658 M 62.030701,8.8834486 V 59.664658 M 64.676534,8.8834486 V 59.664658 M 67.322367,8.8834486 V 59.664658 M 69.9682,8.8834486 V 59.664658 M 72.614034,8.8834486 V 59.664658 M 75.259867,8.8834486 V 59.664658 M 77.9057,8.8834486 V 59.664658 M 80.551533,8.8834486 V 59.664658 M 83.197366,8.8834486 V 59.664658 M 85.8432,8.8834486 V 59.664658 M 88.489033,8.8834486 V 59.664658 M 91.134866,8.8834486 V 59.664658 M 93.780699,8.8834486 V 59.664658 M 96.426532,8.8834486 V 59.664658 M 99.072366,8.8834486 V 59.664658 M 101.7182,8.8834486 V 59.664658 M 104.36403,8.8834486 V 59.664658 M 107.00986,8.8834486 V 59.664658 M 109.6557,8.8834486 V 59.664658 M 112.30153,8.8834486 V 59.664658 M 114.94736,8.8834486 V 59.664658 M 117.5932,8.8834486 V 59.664658 M 120.23903,8.8834486 V 59.664658 M 122.88486,8.8834486 V 59.664658 M 125.5307,8.8834486 V 59.664658 M 128.17653,8.8834486 V 59.664658 M 130.82236,8.8834486 V 59.664658 M 133.4682,8.8834486 V 59.664658 M 136.11403,8.8834486 V 59.664658 M 138.75986,8.8834486 V 59.664658 M 141.4057,8.8834486 V 59.664658 M 144.05153,8.8834486 V 59.664658 M 146.69736,8.8834486 V 59.664658 M 149.3432,8.8834486 V 59.664658 M 151.98903,8.8834486 V 59.664658 M 154.63486,8.8834486 V 59.664658 M 157.2807,8.8834486 V 59.664658 M 159.92653,8.8834486 V 59.664658 M 162.57236,8.8834486 V 59.664658 M 165.2182,8.8834486 V 59.664658 M 167.86403,8.8834486 V 59.664658 M 170.50986,8.8834486 V 59.664658 M 173.1557,8.8834486 V 59.664658 M 11.75987,8.8834486 H 174.25972 M 11.75987,11.529282 H 174.25972 M 11.75987,14.175115 H 174.25972 M 11.75987,16.820948 H 174.25972 M 11.75987,19.466782 H 174.25972 M 11.75987,22.112615 H 174.25972 M 11.75987,24.758448 H 174.25972 M 11.75987,27.404281 H 174.25972 M 11.75987,30.050115 H 174.25972 M 11.75987,32.695948 H 174.25972 M 11.75987,35.341781 H 174.25972 M 11.75987,37.987614 H 174.25972 M 11.75987,40.633447 H 174.25972 M 11.75987,43.279281 H 174.25972 M 11.75987,45.925114 H 174.25972 M 11.75987,48.570947 H 174.25972 M 11.75987,51.21678 H 174.25972 M 11.75987,53.862613 H 174.25972 M 11.75987,56.508447 H 174.25972 M 11.75987,59.15428 h 162.49985"
       style="fill:none;stroke:#000000;stroke-width:0.0264583px"
       id="path7619"
       inkscape:connector-curvature="0" />
  </g>
  <g
     inkscape:groupmode="layer"
     id="layer4"
     inkscape:label="code"
     transform="translate(-11.759858,-8.8834486)"
     sodipodi:insensitive="true"
     style="display:inline">
    <text
       xml:space="preserve"
       style="font-style:normal;font-variant:normal;font-weight:normal;font-stretch:normal;font-size:4.93888903px;line-height:1.25;font-family:Consolas;-inkscape-font-specification:'Consolas, Normal';font-variant-ligatures:normal;font-variant-caps:normal;font-variant-numeric:normal;font-feature-settings:normal;text-align:start;letter-spacing:0px;word-spacing:0px;writing-mode:lr-tb;text-anchor:start;display:inline;fill:#000000;fill-opacity:1;stroke:none;stroke-width:0.26458338"
       x="16.588673"
       y="17.167612"
       id="text4512"><tspan
         sodipodi:role="line"
         id="tspan7470"
         style="line-height:8.81856251px"
         x="16.588673"
         y="17.167612"><tspan
   style="fill:#ff6600"
   id="tspan7488">AutoConnect</tspan>    portal;</tspan><tspan
         sodipodi:role="line"
         id="tspan7472"
         style="line-height:8.81856251px"
         x="16.588673"
         y="25.986176"><tspan
   style="fill:#ff6600"
   id="tspan7490">AutoConnectAux</tspan> aux1<tspan
   style="fill:#ff0000"
   id="tspan7637">(</tspan><tspan
   style="fill:#216778"
   id="tspan7498">&quot;/mqtt_setting&quot;</tspan>, <tspan
   style="fill:#216778"
   id="tspan7500">&quot;MQTT Setting&quot;</tspan><tspan
   style="fill:#ff0000"
   id="tspan7643">)</tspan>;</tspan><tspan
         sodipodi:role="line"
         id="tspan7474"
         style="line-height:8.81856251px"
         x="16.588673"
         y="34.804737"><tspan
   style="fill:#ff6600"
   id="tspan7492">AutoConnectAux</tspan> aux2<tspan
   style="fill:#ff0000"
   id="tspan7639">(</tspan><tspan
   style="fill:#216778"
   id="tspan7506">&quot;/mqtt_save&quot;, &quot;MQTT Setting&quot;</tspan>, <tspan
   style="fill:#37abc8"
   id="tspan7514">false</tspan><tspan
   style="fill:#ff0000"
   id="tspan7645">)</tspan>;</tspan><tspan
         sodipodi:role="line"
         id="tspan7476"
         style="line-height:8.81856251px"
         x="16.588673"
         y="43.623299"><tspan
   style="fill:#ff6600"
   id="tspan7494">AutoConnectAux</tspan> aux3<tspan
   style="fill:#ff0000"
   id="tspan7647">(</tspan><tspan
   style="fill:#216778"
   id="tspan7512">&quot;/mqtt_start&quot;, &quot;MQTT Start&quot;</tspan><tspan
   style="fill:#ff0000"
   id="tspan7641">)</tspan>;</tspan><tspan
         sodipodi:role="line"
         id="tspan7478"
         style="line-height:8.81856251px"
         x="16.588673"
         y="52.441864">portal.<tspan
   style="fill:#ff6600"
   id="tspan7496">join</tspan><tspan
   style="fill:#ff0000"
   id="tspan7625">(</tspan><tspan
   id="tspan7633"
   style="fill:#0000ff">{</tspan> aux1, aux2, aux3 <tspan
   style="fill:#ff0000"
   id="tspan7623"><tspan
   style="fill:#0000ff"
   id="tspan7635">}</tspan>)</tspan>;</tspan></text>
    <flowRoot
       xml:space="preserve"
       id="flowRoot7480"
       style="font-style:normal;font-weight:normal;font-size:40px;line-height:1.25;font-family:sans-serif;letter-spacing:0px;word-spacing:0px;fill:#000000;fill-opacity:1;stroke:none"
       transform="scale(0.26458333)"><flowRegion
         id="flowRegion7482"><rect
           id="rect7484"
           width="222.23357"
           height="51.51778"
           x="221.2234"
           y="103.27576" /></flowRegion><flowPara
         id="flowPara7486"></flowPara></flowRoot>  </g>
  <g
     inkscape:groupmode="layer"
     id="layer5"
     inkscape:label="view"
     transform="translate(-11.759858,-8.8834486)"
     sodipodi:insensitive="true">
    <rect
       style="opacity:0.38699999;fill:#37abc8;fill-opacity:1;stroke:none;stroke-width:0.52916664;stroke-miterlimit:4;stroke-dasharray:0.52916666, 0.52916666;stroke-dashoffset:0;stroke-opacity:1"
       id="rect7539"
       width="16.395168"
       height="8.6281242"
       x="150.52138"
       y="28.977301"
       ry="2.1733632" />
    <path
       style="fill:none;stroke:#ff6600;stroke-width:0.5291667;stroke-linecap:butt;stroke-linejoin:miter;stroke-miterlimit:4;stroke-dasharray:none;stroke-opacity:1"
       d="M 35.246169,53.951772 H 46.738758"
       id="path7543"
       inkscape:connector-curvature="0" />
    <rect
       style="opacity:0.38699999;fill:#ff6600;fill-opacity:1;stroke:none;stroke-width:0.52916664;stroke-miterlimit:4;stroke-dasharray:0.52916667, 0.52916667;stroke-dashoffset:0;stroke-opacity:1"
       id="rect7539-7"
       width="14.410792"
       height="7.2107134"
       x="85.975174"
       y="47.568375"
       ry="1.8163275" />
    <rect
       style="opacity:0.38699999;fill:#ff6600;fill-opacity:1;stroke:none;stroke-width:0.52916664;stroke-miterlimit:4;stroke-dasharray:0.52916667, 0.52916667;stroke-dashoffset:0;stroke-opacity:1"
       id="rect7539-7-6"
       width="14.410792"
       height="7.2107134"
       x="69.485977"
       y="47.332142"
       ry="1.8163275" />
    <rect
       style="opacity:0.38699999;fill:#ff6600;fill-opacity:1;stroke:none;stroke-width:0.52916664;stroke-miterlimit:4;stroke-dasharray:0.52916667, 0.52916667;stroke-dashoffset:0;stroke-opacity:1"
       id="rect7539-7-4"
       width="14.410792"
       height="7.2107134"
       x="52.958519"
       y="47.332138"
       ry="1.8163275" />
    <rect
       style="opacity:0.38699999;fill:#ff6600;fill-opacity:1;stroke:none;stroke-width:0.52916664;stroke-miterlimit:4;stroke-dasharray:0.52916668, 0.52916668;stroke-dashoffset:0;stroke-opacity:1"
       id="rect7539-7-4-4"
       width="13.229617"
       height="7.2107134"
       x="55.538654"
       y="21.157295"
       ry="1.8163275" />
    <rect
       style="opacity:0.38699999;fill:#ff6600;fill-opacity:1;stroke:none;stroke-width:0.52916664;stroke-miterlimit:4;stroke-dasharray:0.52916667, 0.52916667;stroke-dashoffset:0;stroke-opacity:1"
       id="rect7539-7-4-4-5"
       width="13.324111"
       height="7.2107134"
       x="55.538654"
       y="29.955509"
       ry="1.8163275" />
    <rect
       style="opacity:0.38699999;fill:#ff6600;fill-opacity:1;stroke:none;stroke-width:0.52916664;stroke-miterlimit:4;stroke-dasharray:0.52916667, 0.52916667;stroke-dashoffset:0;stroke-opacity:1"
       id="rect7539-7-4-4-9"
       width="13.276864"
       height="7.2107134"
       x="55.538658"
       y="38.753723"
       ry="1.8163275" />
    <rect
       style="opacity:0.38699999;fill:none;fill-opacity:1;stroke:none;stroke-width:0.52916664;stroke-miterlimit:4;stroke-dasharray:none;stroke-dashoffset:0;stroke-opacity:1"
       id="rect7617"
       width="162.49986"
       height="50.781212"
       x="11.759858"
       y="8.8834486"
       ry="0" />
  </g>
</svg>
